<?xml version="1.0" encoding="utf-8"?>
<!-- Generator: Adobe Illustrator 22.0.0, SVG Export Plug-In . SVG Version: 6.00 Build 0)  -->
<svg version="1.1" id="Capa_1" xmlns="http://www.w3.org/2000/svg" xmlns:xlink="http://www.w3.org/1999/xlink" x="0px" y="0px"
	 viewBox="0 0 922 470" style="enable-background:new 0 0 922 470;" xml:space="preserve">
<style type="text/css">
	.st0{fill:#FFFFFF;}
	.st1{fill:#1D1E1B;}
	.st2{fill:#0062A0;}
	.st3{fill:url(#SVGID_3_);}
	.st4{fill:#1D1E1C;}
	.st5{fill:#EBBC02;}
</style>
<g>
	<rect x="551.5" y="55.7" class="st0" width="250.1" height="353.7"/>
	<path class="st1" d="M556,414.3h250.1V59.6H556V414.3z M681.6,409.7v-72.6l-120.9-79.7L681.3,62.9v75.2l119.1,74.1L681.6,409.7z"/>
	<path class="st2" d="M551.5,409.4h250.1V55.7H551.5V409.4z M677,405.8v-72.6l-120.9-79.7L676.7,59v75.2l119.1,74.1L677,405.8z"/>
	<g>
		<path class="st1" d="M735.2,237.9c0,30.9-25.1,56-56,56c-30.9,0-56-25.1-56-56c0-30.9,25.1-56,56-56
			C710.2,181.9,735.2,207,735.2,237.9"/>
	</g>
	<g>
		<defs>
			<path id="SVGID_1_" d="M663.9,178.5c-10.6,2.4-20,7.7-27.4,15.1c-6.8,6.8-11.9,15.5-14.5,25.1c-0.2,0.8-0.4,1.6-0.6,2.4v24.1
				c2.3,10.6,7.7,20.1,15.1,27.6c7.7,7.7,17.6,13.1,28.7,15.3c3.5,0.7,7.2,1.1,10.9,1.1c15.5,0,29.5-6.3,39.6-16.4
				c10.1-10.2,16.4-24.1,16.4-39.6c0-5-0.7-9.9-1.9-14.5c-2.6-9.6-7.7-18.3-14.5-25.1c-7.4-7.4-16.8-12.7-27.4-15.1H663.9z"/>
		</defs>
		<clipPath id="SVGID_2_">
			<use xlink:href="#SVGID_1_"  style="overflow:visible;"/>
		</clipPath>
	</g>
	
		<radialGradient id="SVGID_3_" cx="666.6527" cy="223.7825" r="45.2824" gradientTransform="matrix(1.219 0 0 1.3409 -136.0775 -66.3698)" gradientUnits="userSpaceOnUse">
		<stop  offset="0" style="stop-color:#F0F6F0"/>
		<stop  offset="0.1567" style="stop-color:#ECF4EC"/>
		<stop  offset="0.3176" style="stop-color:#E0EDE1"/>
		<stop  offset="0.4803" style="stop-color:#CBE2CE"/>
		<stop  offset="0.6444" style="stop-color:#AED3B3"/>
		<stop  offset="0.8079" style="stop-color:#8AC091"/>
		<stop  offset="0.9016" style="stop-color:#71B37A"/>
	</radialGradient>
	<circle class="st3" cx="676.6" cy="233.7" r="55.2"/>
</g>
<rect x="135.8" y="128.3" class="st4" width="19.7" height="125.7"/>
<path class="st4" d="M240.9,209.2h22.3v22.8l-0.5,0.2c-9,3.1-16.9,4.8-23.3,4.8c-13.2,0-24.1-4.3-32.4-12.8
	c-8.4-8.5-12.6-19.6-12.6-33c0-12.8,4.3-23.7,12.6-32.5c8.3-8.8,18.7-13.2,30.9-13.2c13.3,0,26.8,4.2,40.4,12.5l2.4,1.5v-21.7
	l-0.9-0.4c-9-4-16.6-6.8-22.5-8.3c-6-1.5-12.4-2.3-19-2.3c-18.3,0-33.7,6.3-45.9,18.7c-12.2,12.4-18.3,28.1-18.3,46.8
	c0,17.7,5.9,32.8,17.7,44.9c11.7,12.1,27.6,18.2,47.2,18.2c14.2,0,28.8-3.4,43.2-10l0.9-0.4v-54.5h-42.1V209.2z"/>
<path class="st4" d="M341.6,127.6L290.5,254H311l14.5-36.3h47.4l15.5,36.3h20.4l-53.4-126.4H341.6z M364.7,198.9h-31.4l15.1-38.6
	L364.7,198.9z"/>
<path class="st4" d="M511.4,222.7c-13.1,8.9-26.6,13.4-40.3,13.4c-13,0-23.7-4.2-32-12.5c-8.3-8.3-12.5-19.1-12.5-32
	c0-12.8,4.3-23.6,12.7-32.2c8.4-8.5,19.2-12.8,32-12.8c12.6,0,25.7,4.1,39,12.1l2.4,1.4v-22.7l-0.9-0.4c-15-6.8-28.9-10.2-41.3-10.2
	c-18,0-33.4,6.3-45.7,18.7c-12.3,12.4-18.5,27.9-18.5,46.1c0,11.4,2.7,22.2,8.1,32.1c5.4,9.9,12.8,17.7,22,23.3
	c9.2,5.6,20.6,8.5,33.8,8.5c16.1,0,30.6-3.6,43-10.7l0.8-0.5V221L511.4,222.7z"/>
<rect x="115.9" y="270.5" class="st4" width="3.5" height="24.2"/>
<polygon class="st4" points="144.4,270.5 147.8,270.5 147.8,294.7 144.7,294.7 128.3,276 128.3,294.7 125,294.7 125,270.5 
	127.8,270.5 144.4,289.3 "/>
<path class="st4" d="M159.1,284.5l-2.7-1.6c-1.7-1-2.9-2-3.6-3c-0.7-1-1.1-2.1-1.1-3.4c0-1.9,0.7-3.5,2-4.6c1.4-1.2,3.1-1.8,5.2-1.8
	c2.1,0,3.9,0.6,5.7,1.7v4c-1.8-1.7-3.7-2.5-5.7-2.5c-1.2,0-2.1,0.3-2.8,0.8c-0.7,0.5-1.1,1.2-1.1,2c0,0.7,0.3,1.4,0.8,2
	c0.5,0.6,1.4,1.3,2.6,2l2.7,1.6c3,1.8,4.5,4,4.5,6.7c0,1.9-0.6,3.5-2,4.7c-1.3,1.2-3,1.8-5.2,1.8c-2.4,0-4.6-0.7-6.6-2.2v-4.4
	c1.9,2.4,4.1,3.6,6.6,3.6c1.1,0,2-0.3,2.8-0.9c0.7-0.6,1.1-1.4,1.1-2.3C162.4,287.3,161.3,285.9,159.1,284.5"/>
<polygon class="st4" points="167.4,270.4 188,270.4 188,273.5 179.4,273.5 179.4,294.7 175.9,294.7 175.9,273.5 167.4,273.5 "/>
<rect x="191.4" y="270.5" class="st4" width="3.5" height="24.2"/>
<polygon class="st4" points="198.2,270.4 218.8,270.4 218.8,273.5 210.2,273.5 210.2,294.7 206.7,294.7 206.7,273.5 198.2,273.5 "/>
<path class="st4" d="M239.2,270.5h3.6v13.7c0,1.9-0.1,3.3-0.4,4.2c-0.3,0.9-0.6,1.7-1,2.4c-0.4,0.6-0.9,1.2-1.5,1.7
	c-2,1.6-4.5,2.5-7.6,2.5c-3.2,0-5.8-0.8-7.7-2.5c-0.6-0.5-1.1-1.1-1.5-1.7c-0.4-0.6-0.7-1.4-1-2.3c-0.3-0.9-0.4-2.3-0.4-4.3v-13.7
	h3.5v13.7c0,2.3,0.3,3.9,0.8,4.7c0.5,0.9,1.3,1.6,2.4,2.1c1.1,0.5,2.3,0.8,3.8,0.8c2.1,0,3.8-0.5,5.1-1.6c0.7-0.6,1.2-1.3,1.5-2
	c0.3-0.8,0.4-2.1,0.4-4V270.5z"/>
<polygon class="st4" points="245.5,270.4 266.1,270.4 266.1,273.5 257.5,273.5 257.5,294.7 254,294.7 254,273.5 245.5,273.5 "/>
<path class="st4" d="M279.1,270.1c3.8,0,7,1.2,9.5,3.5c2.5,2.4,3.8,5.3,3.8,8.9c0,3.6-1.3,6.5-3.8,8.9c-2.6,2.3-5.8,3.5-9.7,3.5
	c-3.7,0-6.8-1.2-9.3-3.5c-2.5-2.3-3.7-5.3-3.7-8.8c0-3.6,1.2-6.6,3.7-9C272.2,271.3,275.3,270.1,279.1,270.1 M279.3,273.4
	c-2.8,0-5.1,0.9-6.9,2.6c-1.8,1.7-2.7,3.9-2.7,6.6c0,2.6,0.9,4.8,2.7,6.5c1.8,1.7,4.1,2.6,6.8,2.6s5-0.9,6.9-2.6
	c1.8-1.8,2.7-4,2.7-6.6c0-2.6-0.9-4.7-2.7-6.5C284.2,274.3,282,273.4,279.3,273.4"/>
<path class="st4" d="M320.1,282.8h8.3V293c-3,1.3-6,2-9,2c-4.1,0-7.3-1.2-9.8-3.5c-2.4-2.3-3.6-5.2-3.6-8.7c0-3.6,1.3-6.6,3.8-9
	c2.5-2.4,5.7-3.6,9.5-3.6c1.4,0,2.7,0.1,3.9,0.4c1.2,0.3,2.8,0.8,4.7,1.6v3.5c-2.9-1.7-5.8-2.5-8.7-2.5c-2.7,0-5,0.9-6.8,2.7
	c-1.8,1.8-2.8,4-2.8,6.6c0,2.7,0.9,5,2.8,6.7c1.8,1.8,4.2,2.6,7.1,2.6c1.4,0,3.1-0.3,5.1-0.9l0.3-0.1v-5.1h-4.7V282.8z"/>
<polygon class="st4" points="333.5,270.5 347.4,270.5 347.4,273.6 337,273.6 337,281 347.1,281 347.1,284.1 337,284.1 337,291.6 
	347.8,291.6 347.8,294.7 333.5,294.7 "/>
<path class="st4" d="M363.6,270.1c3.8,0,7,1.2,9.5,3.5c2.5,2.4,3.8,5.3,3.8,8.9c0,3.6-1.3,6.5-3.8,8.9c-2.5,2.3-5.8,3.5-9.6,3.5
	c-3.7,0-6.8-1.2-9.3-3.5c-2.5-2.3-3.7-5.3-3.7-8.8c0-3.6,1.2-6.6,3.7-9C356.6,271.3,359.8,270.1,363.6,270.1 M363.7,273.4
	c-2.8,0-5.1,0.9-6.9,2.6c-1.8,1.7-2.7,3.9-2.7,6.6c0,2.6,0.9,4.8,2.7,6.5c1.8,1.7,4.1,2.6,6.8,2.6c2.7,0,5-0.9,6.9-2.6
	c1.8-1.8,2.7-4,2.7-6.6c0-2.6-0.9-4.7-2.7-6.5C368.7,274.3,366.4,273.4,363.7,273.4"/>
<path class="st4" d="M394.5,282.8h8.3V293c-3,1.3-6,2-9,2c-4.1,0-7.3-1.2-9.8-3.5c-2.4-2.3-3.7-5.2-3.7-8.7c0-3.6,1.3-6.6,3.8-9
	c2.5-2.4,5.7-3.6,9.5-3.6c1.4,0,2.7,0.1,4,0.4c1.2,0.3,2.8,0.8,4.7,1.6v3.5c-2.9-1.7-5.8-2.5-8.7-2.5c-2.7,0-5,0.9-6.8,2.7
	c-1.8,1.8-2.8,4-2.8,6.6c0,2.7,0.9,5,2.8,6.7c1.8,1.8,4.2,2.6,7.1,2.6c1.4,0,3.1-0.3,5.1-0.9l0.3-0.1v-5.1h-4.7V282.8z"/>
<path class="st4" d="M408,294.7v-24.2h6.2c2.5,0,4.5,0.6,5.9,1.8c1.5,1.2,2.2,2.9,2.2,4.9c0,1.4-0.4,2.6-1.1,3.7
	c-0.7,1-1.7,1.8-3.1,2.3c0.8,0.5,1.6,1.2,2.3,2.1c0.8,0.9,1.8,2.4,3.2,4.6c0.8,1.4,1.5,2.4,2.1,3.1l1.3,1.7h-4.2l-1.1-1.6
	c0-0.1-0.1-0.1-0.2-0.3l-0.7-0.9l-1.1-1.8l-1.2-1.9c-0.7-1-1.4-1.8-2-2.4c-0.6-0.6-1.2-1-1.6-1.3c-0.5-0.3-1.3-0.4-2.5-0.4h-0.9
	v10.5H408z M412.6,273.4h-1.1v7.6h1.3c1.8,0,3-0.2,3.7-0.4c0.7-0.3,1.2-0.8,1.5-1.4c0.4-0.6,0.6-1.3,0.6-2.1c0-0.8-0.2-1.5-0.6-2.1
	c-0.4-0.6-1-1.1-1.7-1.3C415.5,273.6,414.3,273.4,412.6,273.4"/>
<path class="st4" d="M437.5,270.3h2.5l11,24.3h-3.6l-3.3-7.2h-10.5l-3.1,7.2H427L437.5,270.3z M442.7,284.4l-4-8.8l-3.7,8.8H442.7z
	 M443,263.5l-4,5.2h-2l2.4-5.2H443z"/>
<polygon class="st4" points="453.8,270.5 466.9,270.5 466.9,273.6 457.3,273.6 457.3,280.3 466.9,280.3 466.9,283.4 457.3,283.4 
	457.3,294.7 453.8,294.7 "/>
<rect x="470.7" y="270.5" class="st4" width="3.5" height="24.2"/>
<path class="st4" d="M500.8,289.1v3.8c-2.6,1.4-5.6,2.1-8.9,2.1c-2.7,0-5.1-0.5-7-1.6c-1.9-1.1-3.4-2.6-4.5-4.5
	c-1.1-1.9-1.7-4-1.7-6.2c0-3.5,1.3-6.5,3.8-8.9c2.5-2.4,5.7-3.6,9.4-3.6c2.6,0,5.5,0.7,8.6,2v3.7c-2.9-1.6-5.7-2.4-8.4-2.4
	c-2.8,0-5.2,0.9-7,2.6c-1.9,1.8-2.8,4-2.8,6.6c0,2.7,0.9,4.8,2.7,6.5c1.8,1.7,4.2,2.6,7,2.6C495.1,291.8,498,290.9,500.8,289.1"/>
<path class="st4" d="M517.3,270.1c3.8,0,7,1.2,9.5,3.5c2.5,2.4,3.8,5.3,3.8,8.9c0,3.6-1.3,6.5-3.8,8.9c-2.6,2.3-5.8,3.5-9.7,3.5
	c-3.7,0-6.8-1.2-9.3-3.5c-2.5-2.3-3.7-5.3-3.7-8.8c0-3.6,1.2-6.6,3.7-9C510.3,271.3,513.4,270.1,517.3,270.1 M517.4,273.4
	c-2.8,0-5.1,0.9-6.9,2.6c-1.8,1.7-2.7,3.9-2.7,6.6c0,2.6,0.9,4.8,2.7,6.5c1.8,1.7,4.1,2.6,6.8,2.6c2.7,0,5-0.9,6.9-2.6
	c1.8-1.8,2.8-4,2.8-6.6c0-2.6-0.9-4.7-2.8-6.5C522.3,274.3,520.1,273.4,517.4,273.4"/>
<path class="st4" d="M173.1,312.9h2.5l11,24.3H183l-3.3-7.2h-10.5l-3.1,7.2h-3.6L173.1,312.9z M178.3,327l-4-8.8l-3.7,8.8H178.3z"/>
<path class="st4" d="M201.1,325.4h8.3v10.3c-3,1.3-6,1.9-9,1.9c-4.1,0-7.3-1.2-9.8-3.5c-2.4-2.3-3.6-5.2-3.6-8.7
	c0-3.6,1.3-6.6,3.8-9c2.5-2.4,5.7-3.6,9.5-3.6c1.4,0,2.7,0.1,3.9,0.4c1.3,0.3,2.8,0.8,4.7,1.6v3.5c-2.9-1.7-5.9-2.5-8.7-2.5
	c-2.7,0-5,0.9-6.8,2.7c-1.8,1.8-2.8,4-2.8,6.6c0,2.7,0.9,5,2.8,6.7c1.8,1.7,4.2,2.6,7.1,2.6c1.4,0,3.1-0.3,5.1-1l0.3-0.1v-5.1h-4.7
	V325.4z"/>
<path class="st4" d="M231.7,313.1h3.5v13.7c0,1.9-0.1,3.3-0.4,4.2c-0.3,1-0.6,1.7-1,2.4c-0.4,0.6-0.9,1.2-1.5,1.7
	c-1.9,1.7-4.5,2.5-7.6,2.5c-3.2,0-5.8-0.8-7.7-2.5c-0.6-0.5-1.1-1.1-1.5-1.7c-0.4-0.6-0.7-1.4-1-2.3c-0.3-0.9-0.4-2.4-0.4-4.3v-13.7
	h3.5v13.7c0,2.3,0.3,3.9,0.8,4.8c0.5,0.9,1.3,1.6,2.4,2.1c1.1,0.5,2.4,0.8,3.8,0.8c2.1,0,3.8-0.5,5.1-1.6c0.7-0.6,1.2-1.3,1.5-2
	c0.3-0.8,0.5-2.1,0.5-4V313.1z"/>
<path class="st4" d="M246.2,327.1l-2.7-1.6c-1.7-1-2.9-2-3.6-3c-0.7-1-1.1-2.1-1.1-3.4c0-1.9,0.7-3.5,2-4.6c1.3-1.2,3.1-1.8,5.2-1.8
	c2.1,0,3.9,0.6,5.7,1.7v3.9c-1.8-1.7-3.7-2.5-5.7-2.5c-1.1,0-2.1,0.3-2.8,0.8c-0.7,0.5-1.1,1.2-1.1,2c0,0.7,0.3,1.4,0.8,2
	c0.5,0.6,1.4,1.3,2.6,2l2.7,1.6c3,1.8,4.5,4,4.5,6.7c0,2-0.7,3.5-2,4.7c-1.3,1.2-3,1.8-5.1,1.8c-2.4,0-4.7-0.7-6.6-2.2V331
	c1.9,2.4,4.1,3.6,6.6,3.6c1.1,0,2-0.3,2.8-0.9c0.7-0.6,1.1-1.4,1.1-2.3C249.4,329.9,248.3,328.5,246.2,327.1"/>
<polygon class="st4" points="254.5,313 275,313 275,316.1 266.5,316.1 266.5,337.3 262.9,337.3 262.9,316.1 254.5,316.1 "/>
<path class="st4" d="M278.4,313.1h3.5v24.2h-3.5V313.1z M285.1,306.1l-4,5.2h-2l2.4-5.2H285.1z"/>
<polygon class="st4" points="306.9,313.1 310.3,313.1 310.3,337.3 307.2,337.3 290.8,318.6 290.8,337.3 287.5,337.3 287.5,313.1 
	290.3,313.1 306.9,331.9 "/>
<path class="st4" d="M346.8,331.7v3.8c-2.6,1.4-5.6,2.1-8.9,2.1c-2.8,0-5.1-0.5-7-1.6c-1.9-1.1-3.4-2.6-4.6-4.5
	c-1.1-1.9-1.7-4-1.7-6.2c0-3.5,1.3-6.5,3.8-8.9c2.6-2.4,5.7-3.6,9.5-3.6c2.6,0,5.5,0.7,8.6,2v3.7c-2.9-1.6-5.7-2.4-8.4-2.4
	c-2.8,0-5.2,0.9-7,2.6c-1.9,1.7-2.8,3.9-2.8,6.6c0,2.7,0.9,4.8,2.7,6.6c1.8,1.7,4.2,2.6,7,2.6C341,334.4,343.9,333.5,346.8,331.7"/>
<path class="st4" d="M363.2,312.7c3.8,0,7,1.2,9.5,3.6c2.5,2.4,3.8,5.3,3.8,8.9c0,3.6-1.3,6.5-3.8,8.9c-2.6,2.3-5.8,3.5-9.7,3.5
	c-3.7,0-6.8-1.2-9.3-3.5c-2.5-2.3-3.7-5.3-3.7-8.8c0-3.6,1.3-6.6,3.7-9C356.2,313.9,359.4,312.7,363.2,312.7 M363.3,316
	c-2.8,0-5.1,0.9-6.9,2.6c-1.8,1.7-2.7,3.9-2.7,6.6c0,2.6,0.9,4.8,2.7,6.5c1.8,1.7,4.1,2.6,6.8,2.6c2.7,0,5-0.9,6.9-2.7
	c1.8-1.8,2.8-4,2.8-6.6c0-2.6-0.9-4.7-2.8-6.5C368.2,316.9,366,316,363.3,316"/>
<path class="st4" d="M380.8,337.3v-24.2h8.3c3.4,0,6,0.5,7.9,1.5c2,1,3.5,2.4,4.6,4.3c1.2,1.9,1.7,4,1.7,6.3c0,1.6-0.3,3.2-1,4.6
	c-0.6,1.5-1.5,2.8-2.7,3.9c-1.2,1.2-2.6,2-4.2,2.6c-0.9,0.4-1.8,0.6-2.5,0.7c-0.8,0.1-2.3,0.2-4.4,0.2H380.8z M388.7,316.2h-4.4v18
	h4.5c1.8,0,3.1-0.1,4.1-0.4c1-0.2,1.8-0.5,2.4-0.9c0.6-0.4,1.2-0.8,1.8-1.3c1.7-1.7,2.6-3.9,2.6-6.6c0-2.6-0.9-4.7-2.7-6.4
	c-0.7-0.6-1.4-1.1-2.3-1.5c-0.8-0.4-1.7-0.6-2.4-0.8C391.6,316.2,390.4,316.2,388.7,316.2"/>
<path class="st4" d="M413.7,312.9h2.5l11,24.3h-3.6l-3.3-7.2h-10.5l-3.1,7.2h-3.6L413.7,312.9z M418.9,327l-4-8.8l-3.7,8.8H418.9z"
	/>
<polygon class="st4" points="428.6,313 449.8,313 434.1,334.2 449.8,334.2 449.8,337.3 427.6,337.3 443.3,316.1 428.6,316.1 "/>
<polygon class="st4" points="451.9,313 473.1,313 457.4,334.2 473.1,334.2 473.1,337.3 450.9,337.3 466.6,316.1 451.9,316.1 "/>
<rect x="476.5" y="313.1" class="st4" width="3.5" height="24.2"/>
<polyline class="st1" points="710.1,250.4 658.6,219.6 716.4,180.7 "/>
<polygon class="st5" points="655.4,210.2 713.3,171.3 707,240.9 "/>
</svg>
