<svg xmlns="http://www.w3.org/2000/svg" viewBox="0 0 569.6 409.86"><defs><style>.cls-1{fill:#009fe3;}.cls-2{fill:#706f6f;}</style></defs><title>Recurso 7</title><g id="Capa_2" data-name="Capa 2"><g id="Capa_1-2" data-name="Capa 1"><path class="cls-1" d="M107.06,330.49h4.08L99,359.26H98.1L85.75,330.49h4.13L98.5,350.6Z"/><path class="cls-1" d="M114.28,330.49h16.24v3.65H118.38v8.73h11.73v3.67H118.38v8.9h12.53v3.66H114.28Z"/><path class="cls-1" d="M158,330.49h3.9v28.65h-3.53l-19.15-22.07v22.07H135.4V330.49h3.33L158,352.74Z"/><path class="cls-1" d="M165.63,330.45h23.93v3.65h-10v25h-4.12v-25h-9.83Z"/><path class="cls-1" d="M198.38,330.32h2.89l12.84,28.82h-4.2l-3.81-8.49H193.87l-3.58,8.49h-4.21Zm6,16.68-4.62-10.38L195.5,347Z"/><path class="cls-1" d="M240,330.49h3.9v28.65h-3.53l-19.15-22.07v22.07h-3.86V330.49h3.33L240,352.74Z"/><path class="cls-1" d="M250.08,330.49h4.1v28.65h-4.1Z"/><path class="cls-1" d="M260.54,330.49h4.1V355.4h12.9v3.74h-17Z"/><path class="cls-1" d="M281.13,330.49h4.1V355.4h12.9v3.74h-17Z"/><path class="cls-1" d="M310.87,330.32h2.88l12.85,28.82h-4.2l-3.82-8.49H306.36l-3.58,8.49h-4.22Zm6,16.68-4.62-10.38L308,347Z"/><path class="cls-1" d="M341.45,330.49h4.1v28.65h-4.1Z"/><path class="cls-1" d="M374.67,330.49h3.89v28.65H375l-19.16-22.07v22.07H352V330.49h3.32l19.32,22.25Z"/><path class="cls-1" d="M382.26,330.45h23.93v3.65h-10v25h-4.12v-25h-9.82Z"/><path class="cls-1" d="M410.06,330.49h16.25v3.65H414.17v8.73H425.9v3.67H414.17v8.9H426.7v3.66H410.06Z"/><path class="cls-1" d="M446.55,345h9.62v12.14a26.24,26.24,0,0,1-10.5,2.29q-7.12,0-11.38-4.15A13.76,13.76,0,0,1,430,345.07a14.27,14.27,0,0,1,4.41-10.69,15.26,15.26,0,0,1,11.05-4.26,19.53,19.53,0,0,1,4.6.52,37.55,37.55,0,0,1,5.49,1.92v4.18a20.18,20.18,0,0,0-10.17-3,10.78,10.78,0,0,0-7.92,3.2,11.34,11.34,0,0,0,0,15.83,11.49,11.49,0,0,0,8.29,3.1,19.46,19.46,0,0,0,5.89-1.13l.38-.13v-6h-5.51Z"/><path class="cls-1" d="M462.28,359.14V330.49h7.18a10.36,10.36,0,0,1,6.9,2.15,7.23,7.23,0,0,1,2.55,5.82,7.17,7.17,0,0,1-4.84,7.06,12.62,12.62,0,0,1,2.69,2.46,51.3,51.3,0,0,1,3.69,5.43q1.5,2.44,2.4,3.68l1.51,2.05h-4.88l-1.25-1.89a3.81,3.81,0,0,0-.24-.35l-.8-1.13-1.27-2.09-1.37-2.24a22.94,22.94,0,0,0-2.33-2.81,8.63,8.63,0,0,0-1.91-1.5,6.39,6.39,0,0,0-2.86-.46h-1.07v12.47ZM467.61,334h-1.23v9h1.56a11.38,11.38,0,0,0,4.27-.54,3.94,3.94,0,0,0,1.81-1.61,4.64,4.64,0,0,0,.64-2.45A4.36,4.36,0,0,0,474,336a3.93,3.93,0,0,0-2-1.55A14.63,14.63,0,0,0,467.61,334Z"/><path class="cls-1" d="M496.67,330.32h2.88l12.85,28.82h-4.2l-3.82-8.49H492.16l-3.58,8.49h-4.22Zm6,16.68-4.63-10.38L493.79,347Z"/><path class="cls-1" d="M515.58,359.1V330.49h9.66a20.4,20.4,0,0,1,9.25,1.75,13.23,13.23,0,0,1,5.41,5.16,14.33,14.33,0,0,1,2,7.42,14,14,0,0,1-1.11,5.5,14.21,14.21,0,0,1-8,7.71,14.47,14.47,0,0,1-3,.85,40.24,40.24,0,0,1-5.17.22Zm9.23-25h-5.13v21.3h5.25a20.5,20.5,0,0,0,4.78-.42,11.34,11.34,0,0,0,2.84-1.06,9.65,9.65,0,0,0,2.08-1.59,10.61,10.61,0,0,0,3-7.77,9.82,9.82,0,0,0-3.11-7.53,10,10,0,0,0-2.64-1.78,10.81,10.81,0,0,0-2.82-.93A28.91,28.91,0,0,0,524.81,334.14Z"/><path class="cls-1" d="M553.87,330.32h2.88l12.85,28.82h-4.2l-3.82-8.49H549.36l-3.58,8.49h-4.22Zm6,16.68-4.62-10.38L551,347Z"/><path class="cls-1" d="M171.86,380.89H176l-12.12,28.77h-.92l-12.35-28.77h4.13L163.3,401Z"/><path class="cls-1" d="M179.13,380.89h4.1v28.65h-4.1Z"/><path class="cls-1" d="M189.71,409.54V380.89h7.18a10.36,10.36,0,0,1,6.9,2.15,7.23,7.23,0,0,1,2.55,5.82,7.17,7.17,0,0,1-4.84,7.06,12.62,12.62,0,0,1,2.69,2.46,51.3,51.3,0,0,1,3.69,5.43q1.5,2.44,2.4,3.68l1.52,2.05h-4.89l-1.25-1.89a3.81,3.81,0,0,0-.24-.35l-.8-1.13-1.27-2.09L202,401.84a22.94,22.94,0,0,0-2.33-2.81,8.94,8.94,0,0,0-1.91-1.5,6.39,6.39,0,0,0-2.86-.46h-1.07v12.47ZM195,384.37h-1.23v9.05h1.56a11.38,11.38,0,0,0,4.27-.54,3.94,3.94,0,0,0,1.81-1.61,4.65,4.65,0,0,0,.65-2.45,4.37,4.37,0,0,0-.72-2.45,3.93,3.93,0,0,0-2-1.55A14.63,14.63,0,0,0,195,384.37Z"/><path class="cls-1" d="M208.74,380.85h23.93v3.65h-10v25h-4.12v-25h-9.82Z"/><path class="cls-1" d="M256.48,380.89h4.12v16.26a19.36,19.36,0,0,1-.48,5,10.76,10.76,0,0,1-1.19,2.8,8.9,8.9,0,0,1-1.73,2,13.14,13.14,0,0,1-8.9,2.93,13.29,13.29,0,0,1-9-2.91,9.27,9.27,0,0,1-1.74-2,10.55,10.55,0,0,1-1.17-2.74,20.59,20.59,0,0,1-.46-5.08V380.89h4.13v16.26c0,2.69.3,4.57.92,5.62a6.51,6.51,0,0,0,2.81,2.53,9.7,9.7,0,0,0,4.45,1,9,9,0,0,0,6-1.91,6,6,0,0,0,1.74-2.42,15.07,15.07,0,0,0,.53-4.78Z"/><path class="cls-1" d="M274.39,380.72h2.88l12.84,28.82h-4.19l-3.82-8.49H269.88l-3.58,8.49h-4.22Zm6,16.68L275.79,387,271.5,397.4Z"/><path class="cls-1" d="M293.25,380.89h4.1V405.8h12.9v3.74h-17Z"/><path class="cls-1" d="M325.55,409.5V380.89h9.66a20.37,20.37,0,0,1,9.25,1.75,13.23,13.23,0,0,1,5.41,5.16,14.33,14.33,0,0,1,2,7.42,14,14,0,0,1-1.1,5.5,13.79,13.79,0,0,1-3.16,4.61,14,14,0,0,1-4.86,3.1,14.37,14.37,0,0,1-3,.85,40.06,40.06,0,0,1-5.16.22Zm9.23-25h-5.13v21.31h5.25a21,21,0,0,0,4.78-.42,11.57,11.57,0,0,0,2.84-1.07,9.65,9.65,0,0,0,2.08-1.59,10.58,10.58,0,0,0,3-7.77,9.94,9.94,0,0,0-5.75-9.31,10.93,10.93,0,0,0-2.82-.93A29,29,0,0,0,334.78,384.54Z"/><path class="cls-1" d="M357,380.89h16.24v3.65H361.11v8.73h11.73v3.67H361.11v8.91h12.53v3.65H357Z"/><path class="cls-1" d="M378,380.89h4.1V405.8H395v3.74H378Z"/><path class="cls-1" d="M410.31,380.89h4.1v28.65h-4.1Z"/><path class="cls-1" d="M436.25,395.43h9.62v12.14a26.24,26.24,0,0,1-10.5,2.29q-7.11,0-11.37-4.15a13.74,13.74,0,0,1-4.26-10.24,14.27,14.27,0,0,1,4.41-10.69,15.29,15.29,0,0,1,11.06-4.26,19.51,19.51,0,0,1,4.59.52,38,38,0,0,1,5.5,1.92v4.18a20.18,20.18,0,0,0-10.17-3,10.77,10.77,0,0,0-7.92,3.2,11.34,11.34,0,0,0,0,15.83,11.48,11.48,0,0,0,8.28,3.1,19.35,19.35,0,0,0,5.89-1.13l.39-.12v-6h-5.52Z"/><path class="cls-1" d="M461,380.72h2.88l12.85,28.82h-4.2l-3.82-8.49H456.5l-3.58,8.49H448.7Zm6,16.68L462.41,387l-4.29,10.38Z"/><path class="cls-1" d="M502.88,402.89v4.51a21.38,21.38,0,0,1-10.41,2.46,16.14,16.14,0,0,1-8.15-1.92,14.57,14.57,0,0,1-7.24-12.64,14,14,0,0,1,4.46-10.52,15.35,15.35,0,0,1,11-4.26,25.68,25.68,0,0,1,10,2.36v4.41a19.72,19.72,0,0,0-9.83-2.88,11.37,11.37,0,0,0-8.17,3.11,11,11,0,0,0-.05,15.54,11.41,11.41,0,0,0,8.18,3A18.59,18.59,0,0,0,502.88,402.89Z"/><path class="cls-2" d="M276.52,151.53a17.1,17.1,0,0,1,28.65.14V0H0V235.16H143.53l-9.32-26.47H28.66v-1.17H27.44v-181h1.22v-.06H276.52Z"/><path class="cls-1" d="M188.4,306.55,140.85,171.89H172.3l29.3,100.74,29.85-100.74h31.07l-47,134.66Z"/><path class="cls-2" d="M276.75,306.55V171.89h28.36V306.55Z"/><path class="cls-1" d="M367.07,306.55,319.52,171.89H351l29.3,100.74,29.85-100.74h31.07l-47,134.66Z"/><path class="cls-1" d="M455.42,306.55V171.89h28.36V306.55Z"/><circle class="cls-2" cx="47.14" cy="47.01" r="5.54"/><circle class="cls-2" cx="63.7" cy="47.01" r="5.54"/><circle class="cls-2" cx="80.25" cy="47.01" r="5.54"/></g></g></svg>